<?xml version="1.0" encoding="UTF-8"?><svg id="Layer_2" xmlns="http://www.w3.org/2000/svg" viewBox="0 0 308.08 377.18"><defs><style>.cls-1{font-size:10px;}.cls-1,.cls-2{font-family:AndaleMono, 'Andale Mono';}.cls-3{stroke-width:.86px;}.cls-3,.cls-4,.cls-5,.cls-6,.cls-7,.cls-8,.cls-9{stroke:#000;stroke-miterlimit:10;}.cls-3,.cls-4,.cls-6,.cls-7,.cls-8,.cls-9{fill:none;}.cls-10,.cls-5{fill:#fff;}.cls-11{fill:#14998b;}.cls-4{stroke-width:6.06px;}.cls-4,.cls-6,.cls-8{stroke-linecap:square;}.cls-2{font-size:12px;}.cls-6{stroke-width:7.07px;}.cls-7{stroke-width:2px;}.cls-8{stroke-width:1.77px;}</style></defs><g id="Layer_1-2"><path class="cls-11" d="M31.38,23.88C95.65-31.7,266.64,12.91,301.59,124.66c33.04,105.64-66.74,235.34-148.34,231.82-59.02-2.55-98.82-74.38-113.08-100.12C2.99,189.25-23.6,71.43,31.38,23.88Z"/><g><g><rect class="cls-10" x="78.48" y="282.68" width="155" height="94"/><path d="M232.98,283.18v93H78.98v-93H232.98m1-1H77.98v95H233.98v-95h0Z"/></g><line class="cls-9" x1="79.98" y1="296.68" x2="231.48" y2="296.68"/><line class="cls-9" x1="79.98" y1="294.68" x2="231.48" y2="294.68"/><line class="cls-9" x1="79.98" y1="292.68" x2="231.48" y2="292.68"/><line class="cls-9" x1="79.98" y1="290.68" x2="231.48" y2="290.68"/><line class="cls-9" x1="79.98" y1="288.68" x2="231.48" y2="288.68"/><line class="cls-9" x1="79.98" y1="286.68" x2="231.48" y2="286.68"/><line class="cls-9" x1="78.63" y1="300.66" x2="233.48" y2="300.68"/><rect class="cls-10" x="133.98" y="284.18" width="46" height="15"/><text class="cls-2" transform="translate(134.73 295.81)"><tspan x="0" y="0">Lariat</tspan></text><rect class="cls-10" x="83.98" y="284.18" width="14" height="15"/><rect class="cls-5" x="85.98" y="286.68" width="10" height="10"/><rect class="cls-3" x="85.48" y="307.68" width="140" height="22"/><text class="cls-1" transform="translate(99.89 321.7)"><tspan x="0" y="0">Render Views</tspan></text><rect class="cls-3" x="85.48" y="333.68" width="140" height="22"/><text class="cls-1" transform="translate(100.46 345.74)"><tspan x="0" y="0">Download Results</tspan></text></g><g><line class="cls-7" x1="167.69" y1="80.27" x2="34.63" y2="47.68"/><polygon points="167.23 69.89 181.63 83.68 162.49 89.26 167.23 69.89"/></g><g><g><ellipse class="cls-10" cx="240.98" cy="106.3" rx="43.35" ry="14.24"/><path d="M240.98,92.71c25.55,0,42.71,7.03,42.71,13.59s-17.16,13.59-42.71,13.59-42.71-7.03-42.71-13.59,17.16-13.59,42.71-13.59m0-1.29c-24.3,0-44,6.66-44,14.88s19.7,14.88,44,14.88,44-6.66,44-14.88-19.7-14.88-44-14.88h0Z"/></g><g><ellipse class="cls-10" cx="240.98" cy="95.94" rx="43.35" ry="14.24"/><path d="M240.98,82.35c25.55,0,42.71,7.03,42.71,13.59s-17.16,13.59-42.71,13.59-42.71-7.03-42.71-13.59,17.16-13.59,42.71-13.59m0-1.29c-24.3,0-44,6.66-44,14.88s19.7,14.88,44,14.88,44-6.66,44-14.88-19.7-14.88-44-14.88h0Z"/></g><g><ellipse class="cls-10" cx="240.98" cy="85.59" rx="43.35" ry="14.24"/><path d="M240.98,72c25.55,0,42.71,7.03,42.71,13.59s-17.16,13.59-42.71,13.59-42.71-7.03-42.71-13.59,17.16-13.59,42.71-13.59m0-1.29c-24.3,0-44,6.66-44,14.88s19.7,14.88,44,14.88,44-6.66,44-14.88-19.7-14.88-44-14.88h0Z"/></g><g><path class="cls-10" d="M240.98,89.47c-23.5,0-43.35-6.52-43.35-14.24s19.85-14.24,43.35-14.24,43.35,6.52,43.35,14.24-19.85,14.24-43.35,14.24Z"/><path d="M240.98,61.65c25.55,0,42.71,7.03,42.71,13.59s-17.16,13.59-42.71,13.59-42.71-7.03-42.71-13.59,17.16-13.59,42.71-13.59m0-1.29c-24.3,0-44,6.66-44,14.88s19.7,14.88,44,14.88,44-6.66,44-14.88-19.7-14.88-44-14.88h0Z"/></g><text class="cls-2" transform="translate(212.74 78.96)"><tspan x="0" y="0">database</tspan></text></g><g><g><path class="cls-10" d="M121.82,106.13c-.43,0-.85-.04-1.27-.11l-35.24-6.12c-2.56-.44-4.73-2.23-5.67-4.65l-12.86-33.37c-.96-2.5-.51-5.33,1.19-7.4l22.21-27.05c1.42-1.73,3.51-2.72,5.75-2.72,.43,0,.85,.04,1.27,.11l35.24,6.12c2.56,.44,4.73,2.23,5.67,4.65l12.86,33.37c.96,2.5,.51,5.33-1.19,7.4l-22.21,27.05c-1.42,1.73-3.51,2.72-5.75,2.72Z"/><path d="M95.93,24.35v.7c.41,0,.81,.04,1.21,.1l35.24,6.12c2.44,.42,4.51,2.12,5.4,4.43l12.86,33.37c.92,2.38,.48,5.08-1.14,7.05l-22.21,27.05c-1.35,1.65-3.35,2.59-5.48,2.59-.41,0-.81-.04-1.21-.1l-35.24-6.12c-2.44-.42-4.51-2.12-5.4-4.43l-12.86-33.37c-.92-2.38-.48-5.08,1.14-7.05l22.21-27.05c1.35-1.65,3.35-2.59,5.48-2.59v-.7m0,0c-2.31,0-4.53,1.03-6.02,2.85l-22.21,27.05c-1.78,2.17-2.26,5.13-1.25,7.75l12.86,33.37c.99,2.56,3.24,4.41,5.94,4.87l35.24,6.12c.45,.08,.89,.12,1.33,.12,2.31,0,4.53-1.03,6.02-2.85l22.21-27.05c1.78-2.17,2.26-5.13,1.25-7.75l-12.86-33.37c-.99-2.56-3.24-4.41-5.94-4.87l-35.24-6.12c-.45-.08-.89-.12-1.33-.12h0Z"/></g><text class="cls-2" transform="translate(81.29 68.99)"><tspan x="0" y="0">Strainer</tspan></text></g><g><g><rect class="cls-10" x="78.49" y="153.85" width="155" height="94"/><path d="M232.99,154.35v93H78.99v-93H232.99m1-1H77.99v95H233.99v-95h0Z"/></g><line class="cls-9" x1="79.99" y1="167.85" x2="231.49" y2="167.85"/><line class="cls-9" x1="79.99" y1="165.85" x2="231.49" y2="165.85"/><line class="cls-9" x1="79.99" y1="163.85" x2="231.49" y2="163.85"/><line class="cls-9" x1="79.99" y1="161.85" x2="231.49" y2="161.85"/><line class="cls-9" x1="79.99" y1="159.85" x2="231.49" y2="159.85"/><line class="cls-9" x1="79.99" y1="157.85" x2="231.49" y2="157.85"/><line class="cls-9" x1="78.65" y1="171.83" x2="233.49" y2="171.85"/><rect class="cls-10" x="133.99" y="155.35" width="46" height="15"/><text class="cls-2" transform="translate(134.74 166.98)"><tspan x="0" y="0">Server</tspan></text><rect class="cls-10" x="83.99" y="155.35" width="14" height="15"/><rect class="cls-5" x="85.99" y="157.85" width="10" height="10"/><rect class="cls-5" x="85.48" y="176.68" width="142" height="20"/><rect class="cls-5" x="85.48" y="199.68" width="142" height="20"/><rect class="cls-5" x="85.48" y="222.68" width="142" height="20"/><text class="cls-1" transform="translate(89.39 190.43)"><tspan x="0" y="0">POST: api/res%23&amp;120..</tspan></text><text class="cls-1" transform="translate(89.97 212.73)"><tspan x="0" y="0">GET: api/dataset%23...</tspan></text><text class="cls-1" transform="translate(89.98 235.73)"><tspan x="0" y="0">404: HTTPSReponse(na..</tspan></text></g><g><path class="cls-6" d="M188.56,117.28c-14.14-.13-14.27,14-14.27,14"/><g><line class="cls-8" x1="174.27" y1="132.97" x2="174.25" y2="135.16"/><polygon points="185 133.82 163.53 133.62 174.16 144.45 185 133.82"/></g></g><g><path class="cls-6" d="M259.48,152.87c14.14,.13,14.27-14,14.27-14"/><g><line class="cls-8" x1="273.77" y1="137.19" x2="273.79" y2="134.99"/><polygon points="263.04 136.33 284.51 136.54 273.87 125.7 263.04 136.33"/></g></g><g><polygon points="158.58 263.72 180.67 264.31 169.92 252.97 158.58 263.72"/><line class="cls-4" x1="169.46" y1="270.4" x2="169.7" y2="261.31"/></g><g><polygon points="156.58 264.02 134.49 263.52 145.29 274.81 156.58 264.02"/><line class="cls-4" x1="145.68" y1="257.38" x2="145.48" y2="266.48"/></g></g></svg>