<?xml version="1.0" encoding="UTF-8"?><svg id="Layer_2" xmlns="http://www.w3.org/2000/svg" viewBox="0 0 435.85 315.85"><defs><style>.cls-1,.cls-2{fill:#01a69c;}.cls-3,.cls-4,.cls-5{fill:#fff;}.cls-6{fill:#3fa9f5;}.cls-7{fill:#1a1a1a;}.cls-8{stroke-width:1.26px;}.cls-8,.cls-9,.cls-2,.cls-5,.cls-10,.cls-11,.cls-12,.cls-13,.cls-14{stroke-miterlimit:10;}.cls-8,.cls-9,.cls-2,.cls-5,.cls-10,.cls-12,.cls-13,.cls-14{stroke:#000;}.cls-8,.cls-11,.cls-12,.cls-13,.cls-14{fill:none;}.cls-4,.cls-15,.cls-16{font-family:Menlo-Regular, Menlo;}.cls-4,.cls-16{font-size:10px;}.cls-9{stroke-width:1px;}.cls-9,.cls-10{fill:#f2f2f2;}.cls-17{font-family:AndaleMono, 'Andale Mono';}.cls-17,.cls-15{font-size:12px;}.cls-11{stroke:#1a1a1a;stroke-width:2px;}.cls-13{stroke-width:1.23px;}.cls-14{stroke-width:1.23px;}</style></defs><g id="Layer_1-2"><path class="cls-1" d="M47.92,30.63c104.97-101.99,396.91,76.27,387.72,162-3.66,34.15-55.02,52.85-126.84,79-92.94,33.84-206.61,75.23-266.28,9C-11.9,220.22-8.08,85.04,47.92,30.63Z"/><g><g><g><rect class="cls-3" x=".5" y="5.86" width="186.48" height="179.27"/><path d="M186.48,6.36V184.63H1V6.36H186.48m1-1H0V185.63H187.48V5.36h0Z"/></g><line class="cls-12" x1="2.4" y1="19.78" x2="184.48" y2="19.78"/><line class="cls-12" x1="2.4" y1="17.78" x2="184.48" y2="17.78"/><line class="cls-12" x1="2.4" y1="15.78" x2="184.48" y2="15.78"/><line class="cls-12" x1="2.4" y1="13.78" x2="184.48" y2="13.78"/><line class="cls-12" x1="2.4" y1="11.78" x2="184.48" y2="11.78"/><line class="cls-12" x1="2.4" y1="9.78" x2="184.48" y2="9.78"/><line class="cls-12" x1=".79" y1="23.76" x2="186.88" y2="23.78"/><rect class="cls-3" x="70.74" y="7.2" width="46" height="15"/><text class="cls-17" transform="translate(75.5 18.84)"><tspan x="0" y="0">Query</tspan></text><rect class="cls-3" x="11.83" y="7.2" width="14" height="15"/><rect class="cls-5" x="13.83" y="9.7" width="10" height="10"/></g><rect class="cls-14" x="2.35" y="166.13" width="48" height="14"/><rect class="cls-13" x="54.35" y="166.13" width="48" height="14"/><text class="cls-15" transform="translate(6.04 176.5)"><tspan x="0" y="0">&lt;-prev</tspan></text><text class="cls-15" transform="translate(56.16 176.51)"><tspan x="0" y="0">next-&gt;</tspan></text><rect class="cls-12" x="2.35" y="26.13" width="77.5" height="14.15"/><rect class="cls-12" x="2.35" y="42.31" width="77.5" height="14.15"/><rect class="cls-12" x="2.35" y="58.48" width="77.5" height="14.15"/><rect class="cls-9" x="2.35" y="95.35" width="182" height="65.5"/><rect class="cls-2" x="2.35" y="78.13" width="48" height="14"/><rect class="cls-13" x="52.35" y="78.13" width="48" height="14"/><rect class="cls-13" x="102.35" y="78.13" width="48" height="14"/><text class="cls-4" transform="translate(11.13 88.43)"><tspan x="0" y="0">Query</tspan></text><text class="cls-16" transform="translate(59.08 88.95)"><tspan x="0" y="0">Select</tspan></text><text class="cls-16" transform="translate(115.07 87.95)"><tspan x="0" y="0">Copy</tspan></text><text class="cls-16" transform="translate(5.51 37.33)"><tspan x="0" y="0">Dataset</tspan></text><text class="cls-16" transform="translate(5.6 53.58)"><tspan x="0" y="0">Resolution</tspan></text><text class="cls-16" transform="translate(5.6 68.58)"><tspan x="0" y="0">All</tspan></text><polygon points="73.82 53.03 69.89 46.22 77.74 46.22 73.82 53.03"/><polygon points="73.48 67.81 69.55 61.01 77.41 61.01 73.48 67.81"/><polygon points="73.48 36.81 69.55 30.01 77.41 30.01 73.48 36.81"/><rect class="cls-6" x="2.85" y="121.63" width="181" height="13"/><text class="cls-15" transform="translate(6.37 108.44)"><tspan x="0" y="0">1. image_res_#1999</tspan><tspan x="0" y="12">2. image_res_#2001</tspan><tspan class="cls-3"><tspan x="0" y="24">3. image_res_#2008</tspan></tspan><tspan x="0" y="36">4. image_res_#2020</tspan><tspan x="0" y="48">5. image_res_#2022</tspan></text></g><g><g><rect class="cls-3" x="214.07" y="158.8" width="211.31" height="107.35"/><path d="M424.9,159.28v106.41H214.54v-106.41h210.36m.95-.95H213.59v108.3h212.26v-108.3h0Z"/></g><line class="cls-12" x1="216.31" y1="172.75" x2="422.45" y2="172.75"/><line class="cls-12" x1="216.31" y1="170.75" x2="422.45" y2="170.75"/><line class="cls-12" x1="216.31" y1="168.75" x2="422.45" y2="168.75"/><line class="cls-12" x1="216.31" y1="166.75" x2="422.45" y2="166.75"/><line class="cls-12" x1="216.31" y1="164.75" x2="422.45" y2="164.75"/><line class="cls-12" x1="216.31" y1="162.75" x2="422.45" y2="162.75"/><line class="cls-12" x1="214.49" y1="176.73" x2="425.17" y2="176.75"/><rect class="cls-3" x="297.83" y="160.17" width="46" height="15"/><text class="cls-17" transform="translate(302.59 171.81)"><tspan x="0" y="0">Paste</tspan></text><rect class="cls-3" x="225.42" y="160.17" width="14" height="15"/><rect class="cls-5" x="227.42" y="162.67" width="10" height="10"/><rect class="cls-10" x="215.6" y="179.19" width="207.75" height="65.5"/><text class="cls-15" transform="translate(219.62 192.28)"><tspan x="0" y="0">3. image_res_#2008</tspan></text><rect class="cls-8" x="216.35" y="248.13" width="50" height="14"/><text class="cls-16" transform="translate(224.08 258.95)"><tspan x="0" y="0">Select</tspan></text><rect class="cls-8" x="268.35" y="248.13" width="50" height="14"/><text class="cls-16" transform="translate(275.08 258.95)"><tspan x="0" y="0">Remove</tspan></text><rect class="cls-8" x="320.35" y="248.13" width="50" height="14"/><text class="cls-16" transform="translate(330.08 258.95)"><tspan x="0" y="0">Paste</tspan></text><rect class="cls-8" x="372.35" y="248.13" width="50" height="14"/><text class="cls-16" transform="translate(373.08 258.95)"><tspan x="0" y="0">Download</tspan></text></g><g><line class="cls-11" x1="224.11" y1="175.11" x2="172.85" y2="129.63"/><polygon class="cls-7" points="228.55 165.71 234.85 184.63 215.31 180.63 228.55 165.71"/></g></g></svg>