<?xml version="1.0" encoding="UTF-8"?><svg id="Layer_2" xmlns="http://www.w3.org/2000/svg" viewBox="0 0 361.47 363.75"><defs><style>.cls-1,.cls-2{fill:#fff;}.cls-3{fill:#c15260;}.cls-4{fill:#1a1a1a;}.cls-5{font-family:AndaleMono, 'Andale Mono';}.cls-5,.cls-6{font-size:12px;}.cls-2,.cls-7,.cls-8{stroke-miterlimit:10;}.cls-2,.cls-8{stroke:#000;}.cls-6{font-family:Menlo-Regular, Menlo;}.cls-7{stroke:#1a1a1a;stroke-width:2px;}.cls-7,.cls-8{fill:none;}</style></defs><g id="Layer_1-2"><path class="cls-3" d="M24.46,25.7C-5.4,63.8,57,136.92,13.46,237.7c-8.75,20.26-15.28,26.57-13,39,12.23,66.78,246.84,137.89,331,36,40.51-49.04,34.97-124.6,13-175C284.3-.29,66.68-28.19,24.46,25.7Z"/><g><g><g><rect class="cls-1" x="38.48" y="19.45" width="186.48" height="155"/><path d="M224.46,19.95V173.95H38.98V19.95H224.46m1-1H37.98V174.95H225.46V18.95h0Z"/></g><line class="cls-8" x1="40.38" y1="33.37" x2="222.45" y2="33.37"/><line class="cls-8" x1="40.38" y1="31.37" x2="222.45" y2="31.37"/><line class="cls-8" x1="40.38" y1="29.37" x2="222.45" y2="29.37"/><line class="cls-8" x1="40.38" y1="27.37" x2="222.45" y2="27.37"/><line class="cls-8" x1="40.38" y1="25.37" x2="222.45" y2="25.37"/><line class="cls-8" x1="40.38" y1="23.37" x2="222.45" y2="23.37"/><line class="cls-8" x1="38.77" y1="37.36" x2="224.86" y2="37.37"/><rect class="cls-1" x="108.72" y="20.8" width="46" height="15"/><text class="cls-5" transform="translate(113.48 32.43)"><tspan x="0" y="0">Query</tspan></text><rect class="cls-1" x="49.81" y="20.8" width="14" height="15"/><rect class="cls-2" x="51.81" y="23.3" width="10" height="10"/></g><text class="cls-6" transform="translate(41.35 52.03)"><tspan x="0" y="0">$&gt;:?search image_res_#273</tspan><tspan x="0" y="24">@&gt;I found the following </tspan><tspan x="0" y="36">similar images:</tspan><tspan class="cls-3"><tspan x="0" y="48" xml:space="preserve">   image_res_#1999</tspan></tspan><tspan class="cls-3"><tspan x="0" y="60" xml:space="preserve">   image_res_#2001</tspan></tspan><tspan class="cls-3"><tspan x="0" y="72" xml:space="preserve">   image_res_#2008</tspan></tspan><tspan class="cls-3"><tspan x="0" y="84" xml:space="preserve">   image_res_#2020</tspan></tspan><tspan class="cls-3"><tspan x="0" y="96" xml:space="preserve">   image_res_#2022</tspan></tspan></text></g><g><g><rect class="cls-1" x="130.42" y="185.49" width="155" height="80.85"/><path d="M284.92,185.99v79.85H130.92v-79.85h154m1-1H129.92v81.85h156v-81.85h0Z"/></g><line class="cls-8" x1="131.92" y1="199.49" x2="283.42" y2="199.49"/><line class="cls-8" x1="131.92" y1="197.49" x2="283.42" y2="197.49"/><line class="cls-8" x1="131.92" y1="195.49" x2="283.42" y2="195.49"/><line class="cls-8" x1="131.92" y1="193.49" x2="283.42" y2="193.49"/><line class="cls-8" x1="131.92" y1="191.49" x2="283.42" y2="191.49"/><line class="cls-8" x1="131.92" y1="189.49" x2="283.42" y2="189.49"/><line class="cls-8" x1="130.58" y1="203.47" x2="285.42" y2="203.49"/><rect class="cls-1" x="185.92" y="186.99" width="46" height="15"/><text class="cls-5" transform="translate(190.68 198.62)"><tspan x="0" y="0">#1999</tspan></text><rect class="cls-1" x="135.92" y="186.99" width="14" height="15"/><rect class="cls-2" x="137.92" y="189.49" width="10" height="10"/><rect class="cls-8" x="181.28" y="207.38" width="54" height="54"/><line class="cls-8" x1="181.28" y1="207.38" x2="235.28" y2="261.38"/><rect class="cls-8" x="198.28" y="224.38" width="14" height="14"/><rect class="cls-8" x="198.28" y="223.38" width="28" height="28"/><rect class="cls-8" x="181.28" y="207.38" width="10" height="10"/></g><g><g><rect class="cls-1" x="145.1" y="203.31" width="155" height="80.85"/><path d="M299.6,203.81v79.85H145.6v-79.85h154m1-1H144.6v81.85h156v-81.85h0Z"/></g><line class="cls-8" x1="146.6" y1="217.31" x2="298.1" y2="217.31"/><line class="cls-8" x1="146.6" y1="215.31" x2="298.1" y2="215.31"/><line class="cls-8" x1="146.6" y1="213.31" x2="298.1" y2="213.31"/><line class="cls-8" x1="146.6" y1="211.31" x2="298.1" y2="211.31"/><line class="cls-8" x1="146.6" y1="209.31" x2="298.1" y2="209.31"/><line class="cls-8" x1="146.6" y1="207.31" x2="298.1" y2="207.31"/><line class="cls-8" x1="145.26" y1="221.3" x2="300.1" y2="221.31"/><rect class="cls-1" x="200.6" y="204.81" width="46" height="15"/><text class="cls-5" transform="translate(205.36 216.44)"><tspan x="0" y="0">#2001</tspan></text><rect class="cls-1" x="150.6" y="204.81" width="14" height="15"/><rect class="cls-2" x="152.6" y="207.31" width="10" height="10"/><rect class="cls-8" x="195.96" y="225.2" width="54" height="54"/><line class="cls-8" x1="195.96" y1="225.2" x2="249.96" y2="279.2"/><rect class="cls-8" x="212.96" y="242.2" width="14" height="14"/><rect class="cls-8" x="212.96" y="241.2" width="28" height="28"/><rect class="cls-8" x="195.96" y="225.2" width="10" height="10"/></g><g><g><rect class="cls-1" x="161.19" y="220.8" width="155" height="80.85"/><path d="M315.69,221.29v79.85H161.69v-79.85h154m1-1H160.69v81.85h156v-81.85h0Z"/></g><line class="cls-8" x1="162.69" y1="234.79" x2="314.19" y2="234.79"/><line class="cls-8" x1="162.69" y1="232.79" x2="314.19" y2="232.79"/><line class="cls-8" x1="162.69" y1="230.79" x2="314.19" y2="230.79"/><line class="cls-8" x1="162.69" y1="228.79" x2="314.19" y2="228.79"/><line class="cls-8" x1="162.69" y1="226.79" x2="314.19" y2="226.79"/><line class="cls-8" x1="162.69" y1="224.79" x2="314.19" y2="224.79"/><line class="cls-8" x1="161.35" y1="238.78" x2="316.19" y2="238.79"/><rect class="cls-1" x="216.69" y="222.29" width="46" height="15"/><text class="cls-5" transform="translate(221.45 233.93)"><tspan x="0" y="0">#2008</tspan></text><rect class="cls-1" x="166.69" y="222.29" width="14" height="15"/><rect class="cls-2" x="168.69" y="224.79" width="10" height="10"/><rect class="cls-8" x="212.05" y="242.68" width="54" height="54"/><line class="cls-8" x1="212.05" y1="242.68" x2="266.05" y2="296.68"/><rect class="cls-8" x="229.05" y="259.68" width="14" height="14"/><rect class="cls-8" x="229.05" y="258.68" width="28" height="28"/><rect class="cls-8" x="212.05" y="242.68" width="10" height="10"/></g><g><g><rect class="cls-1" x="175.87" y="238.62" width="155" height="80.85"/><path d="M330.37,239.12v79.85H176.37v-79.85h154m1-1H175.37v81.85h156v-81.85h0Z"/></g><line class="cls-8" x1="177.37" y1="252.62" x2="328.87" y2="252.62"/><line class="cls-8" x1="177.37" y1="250.62" x2="328.87" y2="250.62"/><line class="cls-8" x1="177.37" y1="248.62" x2="328.87" y2="248.62"/><line class="cls-8" x1="177.37" y1="246.62" x2="328.87" y2="246.62"/><line class="cls-8" x1="177.37" y1="244.62" x2="328.87" y2="244.62"/><line class="cls-8" x1="177.37" y1="242.62" x2="328.87" y2="242.62"/><line class="cls-8" x1="176.03" y1="256.6" x2="330.87" y2="256.62"/><rect class="cls-1" x="231.37" y="240.12" width="46" height="15"/><text class="cls-5" transform="translate(236.13 251.75)"><tspan x="0" y="0">#2020</tspan></text><rect class="cls-1" x="181.37" y="240.12" width="14" height="15"/><rect class="cls-2" x="183.37" y="242.62" width="10" height="10"/><rect class="cls-8" x="226.73" y="260.5" width="54" height="54"/><line class="cls-8" x1="226.73" y1="260.5" x2="280.73" y2="314.5"/><rect class="cls-8" x="243.73" y="277.5" width="14" height="14"/><rect class="cls-8" x="243.73" y="276.5" width="28" height="28"/><rect class="cls-8" x="226.73" y="260.5" width="10" height="10"/></g><g><g><rect class="cls-1" x="191.85" y="256.89" width="155" height="80.85"/><path d="M346.35,257.39v79.85H192.35v-79.85h154m1-1H191.35v81.85h156v-81.85h0Z"/></g><line class="cls-8" x1="193.35" y1="270.89" x2="344.85" y2="270.89"/><line class="cls-8" x1="193.35" y1="268.89" x2="344.85" y2="268.89"/><line class="cls-8" x1="193.35" y1="266.89" x2="344.85" y2="266.89"/><line class="cls-8" x1="193.35" y1="264.89" x2="344.85" y2="264.89"/><line class="cls-8" x1="193.35" y1="262.89" x2="344.85" y2="262.89"/><line class="cls-8" x1="193.35" y1="260.89" x2="344.85" y2="260.89"/><line class="cls-8" x1="192.01" y1="274.87" x2="346.85" y2="274.89"/><rect class="cls-1" x="247.35" y="258.39" width="46" height="15"/><text class="cls-5" transform="translate(252.11 270.02)"><tspan x="0" y="0">#2022</tspan></text><rect class="cls-1" x="197.35" y="258.39" width="14" height="15"/><rect class="cls-2" x="199.35" y="260.89" width="10" height="10"/><rect class="cls-8" x="242.71" y="278.77" width="54" height="54"/><line class="cls-8" x1="242.71" y1="278.77" x2="296.71" y2="332.77"/><rect class="cls-8" x="259.71" y="295.77" width="14" height="14"/><rect class="cls-8" x="259.71" y="294.77" width="28" height="28"/><rect class="cls-8" x="242.71" y="278.77" width="10" height="10"/></g><g><path class="cls-7" d="M178.46,113.7c2.63,.24,38.03,4.03,52,33,3.16,6.56,4.53,12.97,5.02,18.48"/><polygon class="cls-4" points="247.49 163.44 223.2 163.66 235.46 175.7 247.49 163.44"/></g></g></svg>