<?xml version="1.0" encoding="UTF-8"?><svg id="Layer_2" xmlns="http://www.w3.org/2000/svg" viewBox="0 0 612.85 543.7"><defs><style>.cls-1{font-size:10px;}.cls-1,.cls-2{font-family:AndaleMono, 'Andale Mono';}.cls-3{fill:#01a69c;}.cls-4,.cls-5,.cls-6{fill:#fff;}.cls-7{fill:#1a1a1a;}.cls-5{fill-rule:evenodd;}.cls-5,.cls-6,.cls-8,.cls-9,.cls-10{stroke-miterlimit:10;}.cls-5,.cls-6,.cls-9,.cls-10{stroke:#000;}.cls-2,.cls-11{font-size:12px;}.cls-11,.cls-12{font-family:Menlo-Regular, Menlo;}.cls-8{stroke:#1a1a1a;}.cls-8,.cls-9{stroke-width:2px;}.cls-8,.cls-9,.cls-10{fill:none;}.cls-12{font-size:18px;}</style></defs><g id="Layer_1-2"><path class="cls-3" d="M32.68,80.64C96.44-3.78,245.42-16.59,354.68,17.64c120.58,37.78,278.58,159.77,256,310-13.43,89.33-89.48,180.51-194,198-99.95,16.72-199.72-38.33-241-111-52.57-92.54-1.3-197.81-54-227-39.53-21.89-92.1,24.2-114,1-18.45-19.55-1.11-73.43,25-108Z"/><g><g><rect class="cls-4" x="124.67" y="284.64" width="218.65" height="99.71"/><path d="M342.82,285.14v98.71H125.17v-98.71h217.65m1-1H124.17v100.71h219.65v-100.71h0Z"/></g><line class="cls-10" x1="126.17" y1="298.64" x2="341.32" y2="298.35"/><line class="cls-10" x1="126.17" y1="296.64" x2="341.32" y2="296.35"/><line class="cls-10" x1="126.17" y1="294.64" x2="341.32" y2="294.35"/><line class="cls-10" x1="126.17" y1="292.64" x2="341.32" y2="292.35"/><line class="cls-10" x1="126.17" y1="290.5" x2="341.32" y2="290.35"/><line class="cls-10" x1="126.17" y1="288.64" x2="341.32" y2="288.35"/><line class="cls-10" x1="124.83" y1="302.63" x2="343.32" y2="302.35"/><rect class="cls-4" x="210.82" y="286.85" width="46" height="15"/><rect class="cls-4" x="130.17" y="286.14" width="14" height="15"/><rect class="cls-6" x="132.17" y="288.64" width="10" height="10"/><text class="cls-2" transform="translate(211.89 297.84)"><tspan x="0" y="0">Server</tspan></text></g><text class="cls-11" transform="translate(390.76 414.23)"><tspan x="0" y="0">1. Request Similarity </tspan><tspan x="0" y="14.4">Search of ABC. k=5</tspan></text><g><g><g><rect class="cls-4" x="124.42" y="443.5" width="218.65" height="99.71"/><path d="M342.58,444v98.71H124.92v-98.71h217.65m1-1H123.92v100.71h219.65v-100.71h0Z"/></g><line class="cls-10" x1="125.92" y1="457.5" x2="341.08" y2="457.21"/><line class="cls-10" x1="125.92" y1="455.5" x2="341.08" y2="455.21"/><line class="cls-10" x1="125.92" y1="453.5" x2="341.08" y2="453.21"/><line class="cls-10" x1="125.92" y1="451.5" x2="341.08" y2="451.21"/><line class="cls-10" x1="125.92" y1="449.35" x2="341.08" y2="449.2"/><line class="cls-10" x1="125.92" y1="447.5" x2="341.08" y2="447.21"/><line class="cls-10" x1="124.58" y1="461.48" x2="343.08" y2="461.2"/><rect class="cls-4" x="210.58" y="445.7" width="46" height="15"/><rect class="cls-4" x="129.92" y="445" width="14" height="15"/><rect class="cls-6" x="131.92" y="447.5" width="10" height="10"/><text class="cls-2" transform="translate(211.65 456.69)"><tspan x="0" y="0">Client</tspan></text></g><g><g><rect class="cls-4" x="124.88" y="461.98" width="155" height="80.85"/><path d="M279.38,462.48v79.85H125.38v-79.85h154m1-1H124.38v81.85h156v-81.85h0Z"/></g><line class="cls-10" x1="126.38" y1="475.98" x2="277.88" y2="475.98"/><line class="cls-10" x1="126.38" y1="473.98" x2="277.88" y2="473.98"/><line class="cls-10" x1="126.38" y1="471.98" x2="277.88" y2="471.98"/><line class="cls-10" x1="126.38" y1="469.98" x2="277.88" y2="469.98"/><line class="cls-10" x1="126.38" y1="467.98" x2="277.88" y2="467.98"/><line class="cls-10" x1="126.38" y1="465.98" x2="277.88" y2="465.98"/><line class="cls-10" x1="125.04" y1="479.97" x2="279.88" y2="479.98"/><rect class="cls-4" x="180.38" y="463.48" width="46" height="15"/><text class="cls-2" transform="translate(185.14 475.11)"><tspan x="0" y="0">Query</tspan></text><rect class="cls-4" x="130.38" y="463.48" width="14" height="15"/><rect class="cls-6" x="132.38" y="465.98" width="10" height="10"/><rect class="cls-10" x="131.88" y="486.98" width="140" height="22"/><text class="cls-1" transform="translate(159.3 501.01)"><tspan x="0" y="0">Dataset Lookup</tspan></text><rect class="cls-10" x="131.88" y="512.98" width="71.56" height="22"/><text class="cls-1" transform="translate(145.86 527.05)"><tspan x="0" y="0">Subtype</tspan></text><rect class="cls-10" x="206.44" y="512.98" width="65" height="22"/><text class="cls-1" transform="translate(209.42 527.05)"><tspan x="0" y="0">Similarity</tspan></text></g><rect class="cls-3" x="295.68" y="482.64" width="37" height="37"/><text class="cls-12" transform="translate(298.18 508.14)"><tspan x="0" y="0">ABC</tspan></text></g><text class="cls-11" transform="translate(382.34 287.22)"><tspan x="0" y="0">2. Embed ABC and take HNSW</tspan><tspan x="0" y="14.4">Superset of similar neighbors</tspan></text><g><line class="cls-8" x1="198.68" y1="421.29" x2="198.68" y2="371.64"/><polygon class="cls-7" points="208.65 418.37 198.68 435.64 188.71 418.37 208.65 418.37"/></g><g><ellipse class="cls-6" cx="290.68" cy="226.3" rx="50" ry="14"/><ellipse class="cls-6" cx="290.68" cy="209.14" rx="50" ry="14"/><ellipse class="cls-6" cx="290.68" cy="192.64" rx="50" ry="14"/><text class="cls-11" transform="translate(269.26 197.15)"><tspan x="0" y="0">VEC-DB</tspan></text></g><g><ellipse class="cls-6" cx="174.69" cy="225.35" rx="50" ry="14"/><ellipse class="cls-6" cx="174.69" cy="208.2" rx="50" ry="14"/><ellipse class="cls-6" cx="174.69" cy="191.7" rx="50" ry="14"/><text class="cls-11" transform="translate(149.62 196.7)"><tspan x="0" y="0">True DB</tspan></text></g><g><line class="cls-8" x1="273.87" y1="153.38" x2="292.16" y2="171.68"/><polygon class="cls-7" points="268.88 162.5 263.72 143.23 282.98 148.39 268.88 162.5"/></g><text class="cls-11" transform="translate(318.96 148.52)"><tspan x="0" y="0">3. Use HNSW found ids</tspan><tspan x="0" y="14.4">to call 20 neighbors</tspan></text><text class="cls-11" transform="translate(189.81 344.65)"><tspan x="0" y="0">5. Return K Similar</tspan><tspan x="0" y="14.4">Images and Data</tspan></text><text class="cls-11" transform="translate(172.62 36.9)"><tspan x="0" y="0">4. Re-rank, KNN,</tspan><tspan x="0" y="14.4">solve 5 best ids</tspan><tspan x="0" y="28.8">(closest distance)</tspan></text><g><line class="cls-8" x1="173.79" y1="159.45" x2="195.43" y2="137.81"/><polygon class="cls-7" points="182.9 164.44 163.64 169.6 168.8 150.34 182.9 164.44"/></g><text class="cls-11" transform="translate(23.93 141.62)"><tspan x="0" y="0">4. Return 5 best ids</tspan></text><g><polygon class="cls-5" points="251.83 70.14 208.53 70.14 186.88 107.64 208.53 145.14 251.83 145.14 273.48 107.64 251.83 70.14"/><text class="cls-11" transform="translate(204.01 111.47)"><tspan x="0" y="0">Llama3.3</tspan></text></g><g><path class="cls-8" d="M368.68,474.64c23.06-39.97,4.96-86.6-4.65-106.04"/><polygon class="cls-7" points="354.05 375.81 375.46 364.32 359.02 359.36 354.05 375.81"/></g><g><path class="cls-9" d="M352.68,312.64c22.8-19.97,31.82-49.14,23-73-4.09-11.05-11.22-18.85-17.39-23.95"/><polygon points="352.5 226.59 366.62 206.82 349.68 209.64 352.5 226.59"/></g><g><path class="cls-9" d="M174.46,243.95c-22.8,19.97-31.82,49.14-23,73,4.09,11.05,11.22,18.85,17.39,23.95"/><polygon points="174.64 330 160.51 349.77 177.46 346.95 174.64 330"/></g></g></svg>