<?xml version="1.0" encoding="UTF-8"?><svg id="Layer_2" xmlns="http://www.w3.org/2000/svg" viewBox="0 0 383.87 354.42"><defs><style>.cls-1{font-size:10px;}.cls-1,.cls-2{font-family:AndaleMono, 'Andale Mono';}.cls-3,.cls-4{fill:#fff;}.cls-5{fill:#c15260;}.cls-6{fill:#1a1a1a;}.cls-2{font-size:12px;}.cls-4,.cls-7,.cls-8,.cls-9{stroke-miterlimit:10;}.cls-4,.cls-8,.cls-9{stroke:#000;}.cls-7{stroke:#1a1a1a;}.cls-7,.cls-8{stroke-width:2px;}.cls-7,.cls-8,.cls-9{fill:none;}.cls-10{font-family:Menlo-Regular, Menlo;font-size:50px;}</style></defs><g id="Layer_1-2"><path class="cls-5" d="M31.2,156.71C40.8,72.28,196.77-10.79,298.2,47.71c95.88,55.3,110.4,218.29,48,271-45.13,38.12-123.07,12.26-151,3C122.38,297.55,22.98,228.93,31.2,156.71Z"/><g><g><rect class="cls-3" x="223.66" y="272.91" width="155" height="80.85"/><path d="M378.16,273.41v79.85H224.16v-79.85h154m1-1H223.16v81.85h156v-81.85h0Z"/></g><line class="cls-9" x1="225.16" y1="286.91" x2="376.66" y2="286.91"/><line class="cls-9" x1="225.16" y1="284.91" x2="376.66" y2="284.91"/><line class="cls-9" x1="225.16" y1="282.91" x2="376.66" y2="282.91"/><line class="cls-9" x1="225.16" y1="280.91" x2="376.66" y2="280.91"/><line class="cls-9" x1="225.16" y1="278.91" x2="376.66" y2="278.91"/><line class="cls-9" x1="225.16" y1="276.91" x2="376.66" y2="276.91"/><line class="cls-9" x1="223.82" y1="290.89" x2="378.66" y2="290.91"/><rect class="cls-3" x="272.06" y="274.29" width="58" height="15"/><text class="cls-2" transform="translate(272.06 286.04)"><tspan x="0" y="0">etcetera</tspan></text><rect class="cls-3" x="229.16" y="274.41" width="14" height="15"/><rect class="cls-4" x="231.16" y="276.91" width="10" height="10"/><rect class="cls-9" x="230.66" y="297.91" width="140" height="22"/><text class="cls-1" transform="translate(239.08 311.93)"><tspan x="0" y="0">Pasteboard</tspan></text><rect class="cls-9" x="230.66" y="323.91" width="140.09" height="22"/><text class="cls-1" transform="translate(238.65 337.97)"><tspan x="0" y="0">Download Interface</tspan></text></g><g><g><rect class="cls-3" x="93.74" y="235.83" width="80.85" height="155" transform="translate(-179.44 446.87) rotate(-89.89)"/><path d="M57.24,273.25l154,.31-.16,79.85-154-.31,.16-79.85m-1-1l-.16,81.85,156,.31,.16-81.85-156-.31h0Z"/></g><line class="cls-9" x1="58.22" y1="286.76" x2="209.71" y2="287.06"/><line class="cls-9" x1="58.22" y1="284.76" x2="209.72" y2="285.06"/><line class="cls-9" x1="58.22" y1="282.76" x2="209.72" y2="283.06"/><line class="cls-9" x1="58.23" y1="280.76" x2="209.73" y2="281.06"/><line class="cls-9" x1="58.23" y1="278.76" x2="209.73" y2="279.06"/><line class="cls-9" x1="58.24" y1="276.76" x2="209.73" y2="277.06"/><line class="cls-9" x1="56.87" y1="290.74" x2="211.71" y2="291.06"/><rect class="cls-3" x="115.32" y="274.29" width="39" height="15" transform="translate(.56 -.27) rotate(.11)"/><text class="cls-2" transform="translate(117.26 285.93) rotate(.11)"><tspan x="0" y="0">Pairs</tspan></text><rect class="cls-3" x="62.23" y="274.28" width="14" height="15" transform="translate(.56 -.14) rotate(.11)"/><rect class="cls-4" x="64.23" y="276.78" width="10" height="10" transform="translate(.56 -.14) rotate(.11)"/><rect class="cls-9" x="63.67" y="297.91" width="140" height="22" transform="translate(.62 -.27) rotate(.11)"/><text class="cls-1" transform="translate(72.04 311.73) rotate(.11)"><tspan x="0" y="0">Set operations</tspan></text><rect class="cls-9" x="63.62" y="323.91" width="140.09" height="22" transform="translate(.67 -.27) rotate(.11)"/><text class="cls-1" transform="translate(71.55 337.77) rotate(.11)"><tspan x="0" y="0">Coord. Intersect</tspan></text></g><g><g><rect class="cls-3" x="59.04" y=".5" width="218.65" height="99.71"/><path d="M277.2,1V99.71H59.54V1h217.65m1-1H58.54V100.71h219.65V0h0Z"/></g><line class="cls-9" x1="60.54" y1="14.5" x2="275.7" y2="14.21"/><line class="cls-9" x1="60.54" y1="12.5" x2="275.7" y2="12.21"/><line class="cls-9" x1="60.54" y1="10.5" x2="275.7" y2="10.21"/><line class="cls-9" x1="60.54" y1="8.5" x2="275.7" y2="8.21"/><line class="cls-9" x1="60.54" y1="6.35" x2="275.7" y2="6.21"/><line class="cls-9" x1="60.54" y1="4.5" x2="275.7" y2="4.21"/><line class="cls-9" x1="59.2" y1="18.48" x2="277.7" y2="18.21"/><rect class="cls-3" x="145.2" y="2.71" width="46" height="15"/><rect class="cls-3" x="64.54" y="2" width="14" height="15"/><rect class="cls-4" x="66.54" y="4.5" width="10" height="10"/><text class="cls-2" transform="translate(146.27 13.69)"><tspan x="0" y="0">Lariat</tspan></text><text class="cls-10" transform="translate(90.69 72.14)"><tspan x="0" y="0">_@@@_</tspan></text></g><g><line class="cls-8" x1="95.97" y1="156.5" x2="170.2" y2="104.71"/><polygon points="104.07 163.01 84.2 164.71 92.65 146.65 104.07 163.01"/></g><g><line class="cls-7" x1="140.9" y1="257.61" x2="170.2" y2="104.71"/><polygon class="cls-6" points="151.24 256.62 138.2 271.71 131.65 252.87 151.24 256.62"/></g><g><line class="cls-7" x1="291.38" y1="260.38" x2="170.2" y2="104.71"/><polygon class="cls-6" points="297.46 251.95 300.2 271.71 281.72 264.21 297.46 251.95"/></g><g><g><rect class="cls-3" x="165.96" y="166.94" width="155" height="80.85"/><path d="M320.46,167.44v79.85H166.46v-79.85h154m1-1H165.46v81.85h156v-81.85h0Z"/></g><line class="cls-9" x1="167.46" y1="180.94" x2="318.96" y2="180.94"/><line class="cls-9" x1="167.46" y1="178.94" x2="318.96" y2="178.94"/><line class="cls-9" x1="167.46" y1="176.94" x2="318.96" y2="176.94"/><line class="cls-9" x1="167.46" y1="174.94" x2="318.96" y2="174.94"/><line class="cls-9" x1="167.46" y1="172.94" x2="318.96" y2="172.94"/><line class="cls-9" x1="167.46" y1="170.94" x2="318.96" y2="170.94"/><line class="cls-9" x1="166.12" y1="184.93" x2="320.96" y2="184.94"/><rect class="cls-3" x="217.55" y="168.32" width="52" height="15"/><text class="cls-2" transform="translate(217.55 180.08)"><tspan x="0" y="0">Inspect</tspan></text><rect class="cls-3" x="171.46" y="168.44" width="14" height="15"/><rect class="cls-4" x="173.46" y="170.94" width="10" height="10"/><rect class="cls-9" x="172.96" y="191.94" width="140" height="22"/><text class="cls-1" transform="translate(182.53 206.11)"><tspan x="0" y="0">Visualization</tspan></text><rect class="cls-9" x="172.96" y="217.94" width="140.09" height="22"/><text class="cls-1" transform="translate(181.94 232.01)"><tspan x="0" y="0">Image Proccessing</tspan></text></g><g><line class="cls-8" x1="236.02" y1="157.71" x2="170.2" y2="104.71"/><polygon points="240 148.11 247.2 166.71 227.49 163.64 240 148.11"/></g><g><g><rect class="cls-3" x=".5" y="166.98" width="155" height="80.85"/><path d="M155,167.48v79.85H1v-79.85H155m1-1H0v81.85H156v-81.85h0Z"/></g><line class="cls-9" x1="2" y1="180.98" x2="153.5" y2="180.98"/><line class="cls-9" x1="2" y1="178.98" x2="153.5" y2="178.98"/><line class="cls-9" x1="2" y1="176.98" x2="153.5" y2="176.98"/><line class="cls-9" x1="2" y1="174.98" x2="153.5" y2="174.98"/><line class="cls-9" x1="2" y1="172.98" x2="153.5" y2="172.98"/><line class="cls-9" x1="2" y1="170.98" x2="153.5" y2="170.98"/><line class="cls-9" x1=".66" y1="184.97" x2="155.5" y2="184.98"/><rect class="cls-3" x="56" y="168.48" width="46" height="15"/><text class="cls-2" transform="translate(60.76 180.12)"><tspan x="0" y="0">Query</tspan></text><rect class="cls-3" x="6" y="168.48" width="14" height="15"/><rect class="cls-4" x="8" y="170.98" width="10" height="10"/><rect class="cls-9" x="7.5" y="191.98" width="140" height="22"/><text class="cls-1" transform="translate(34.92 206.01)"><tspan x="0" y="0">Dataset Lookup</tspan></text><rect class="cls-9" x="7.5" y="217.98" width="71.56" height="22"/><text class="cls-1" transform="translate(21.48 232.05)"><tspan x="0" y="0">Subtype</tspan></text><rect class="cls-9" x="82.06" y="217.98" width="65" height="22"/><text class="cls-1" transform="translate(85.04 232.05)"><tspan x="0" y="0">Similarity</tspan></text></g></g></svg>